<svg xmlns="http://www.w3.org/2000/svg" viewBox="0 0 128 128" role="img" aria-labelledby="title desc">
  <title id="title">Excel Sequence Generator logo</title>
  <desc id="desc">A spreadsheet grid with an ordered sequence mark.</desc>
  <rect width="128" height="128" rx="22" fill="#f8fafc"/>
  <rect x="18" y="20" width="90" height="86" rx="12" fill="#ffffff" stroke="#cbd5e1" stroke-width="4"/>
  <path d="M18 42h90M18 62h90M18 82h90M42 20v86M66 20v86M86 20v86" stroke="#dbe4ee" stroke-width="4"/>
  <rect x="18" y="20" width="90" height="22" rx="12" fill="#11885a"/>
  <path d="M18 32c0-6.6 5.4-12 12-12h78v22H18z" fill="#11885a"/>
  <circle cx="42" cy="62" r="7" fill="#11885a"/>
  <circle cx="66" cy="62" r="7" fill="#2563eb"/>
  <circle cx="86" cy="62" r="7" fill="#f59e0b"/>
  <path d="M39 88h48" stroke="#0f172a" stroke-width="6" stroke-linecap="round"/>
  <path d="M82 78l12 10-12 10" fill="none" stroke="#0f172a" stroke-width="6" stroke-linecap="round" stroke-linejoin="round"/>
</svg>
