<svg xmlns="http://www.w3.org/2000/svg" viewBox="0 0 128 128" role="img" aria-labelledby="title desc">
  <title id="title">Rowlabeler logo</title>
  <desc id="desc">A green rounded spreadsheet label icon with an R mark and row lines.</desc>
  <rect width="128" height="128" rx="28" fill="#f8fafc"/>
  <rect x="9" y="9" width="110" height="110" rx="25" fill="#ffffff" stroke="#d8e4de" stroke-width="3"/>
  <rect x="22" y="22" width="84" height="84" rx="20" fill="#0f8a5f"/>
  <path d="M41 88V40h24c11 0 19 7 19 17 0 7-4 13-11 16l14 15H73L61 75h-8v13H41Zm12-24h11c5 0 8-3 8-7s-3-7-8-7H53v14Z" fill="#ffffff"/>
  <path d="M34 41h12M34 56h12M34 71h12" stroke="#b7f7d6" stroke-width="5" stroke-linecap="round"/>
  <path d="M86 39h12M86 54h12M86 69h12" stroke="#b7f7d6" stroke-width="5" stroke-linecap="round"/>
  <circle cx="96" cy="88" r="7" fill="#f7c948"/>
</svg>
